<?xml version="1.0" encoding="utf-8"?>
<!-- Generator: Adobe Illustrator 19.1.0, SVG Export Plug-In . SVG Version: 6.00 Build 0)  -->
<svg version="1.1" xmlns="http://www.w3.org/2000/svg" xmlns:xlink="http://www.w3.org/1999/xlink" x="0px" y="0px"
	 viewBox="0 0 32 32" style="enable-background:new 0 0 32 32;" xml:space="preserve">
<style type="text/css">
	.st0{display:none;}
	.st1{display:inline;}
	.st2{fill:#0000FF;}
	.st3{fill:#009245;}
	.st4{fill:#3FA9F5;}
	.st5{fill:#7AC943;}
	.st6{fill:#FFFFFF;}
	.st7{fill:#46B649;}
	.st8{fill:#FF0000;}
	.st9{fill:#0048B9;}
	.st10{fill:#000077;}
	.st11{fill:none;}
	.st12{fill:#0000E2;}
	.st13{fill:#00FF00;}
	.st14{fill:#00B8FF;}
	.st15{fill:#006837;}
	.st16{fill:#C80000;}
	.st17{fill:#964B00;}
	.st18{fill:#8CC63F;}
	.st19{fill:#666666;}
	.st20{fill:#B4B4B4;}
	.st21{fill:#3366FF;}
	.st22{fill:#FF8000;}
	.st23{fill:#96632F;}
	.st24{fill:none;stroke:#000000;stroke-width:2;stroke-miterlimit:10;}
	.st25{fill:none;stroke:#FFFFFF;stroke-width:3;stroke-miterlimit:10;}
	.st26{fill:#454545;}
	.st27{fill:#727272;}
	.st28{fill:#FCB615;stroke:#000000;stroke-miterlimit:10;}
	.st29{fill:#46B649;stroke:#000000;stroke-miterlimit:10;}
	.st30{fill:#FF0000;stroke:#000000;stroke-miterlimit:10;}
	.st31{fill:#3366FF;stroke:#000000;stroke-miterlimit:10;}
	.st32{fill:#FFFFFF;stroke:#000000;stroke-miterlimit:10;}
	.st33{fill:#FCB615;}
	.st34{fill:#FFFF00;}
	.st35{fill:#919191;}
	.st36{fill:#DBEDF3;}
	.st37{fill:#A7B5EF;}
	.st38{fill:none;stroke:#000000;stroke-width:3;stroke-miterlimit:10;}
	.st39{fill:#42210B;}
	.st40{fill:#FCEE21;}
	.st41{fill:#BA6728;}
	.st42{fill:none;stroke:#000000;stroke-width:4;stroke-miterlimit:10;}
	.st43{fill:#FFFFFF;stroke:#000000;stroke-width:4;stroke-miterlimit:10;}
	.st44{fill:#A7A7A7;}
</style>
<g id="Scrap">
</g>
<g id="Icons">
	<g>
		<path class="st6" d="M15.7,30.3c-7.7,0-14-6.3-14-14v-0.6c0-7.7,6.3-14,14-14h0.6c7.7,0,14,6.3,14,14v0.6c0,7.7-6.3,14-14,14H15.7
			z"/>
		<path d="M16.3,3.2c6.9,0,12.5,5.6,12.5,12.5v0.6c0,6.9-5.6,12.5-12.5,12.5h-0.6c-6.9,0-12.5-5.6-12.5-12.5v-0.6
			c0-6.9,5.6-12.5,12.5-12.5H16.3 M16.3,0.2h-0.6c-8.5,0-15.5,7-15.5,15.5v0.6c0,8.5,7,15.5,15.5,15.5h0.6c8.5,0,15.5-7,15.5-15.5
			v-0.6C31.8,7.2,24.8,0.2,16.3,0.2L16.3,0.2z"/>
	</g>
	<g>
		<path d="M16,22h-0.2c-3.2,0-5.9-2.6-5.9-5.9v-0.2c0-3.2,2.6-5.9,5.9-5.9H16c3.2,0,5.9,2.6,5.9,5.9v0.2C21.9,19.4,19.2,22,16,22z"
			/>
	</g>
</g>
<g id="Layer_3">
</g>
</svg>
